# xmcd
#
# Track frame offsets: 
#        150
#        12979
#        23862
#        37037
#        46773
#        59423
#        72782
#        86350
#        99216
#        113358
#        124464
#        136732
#        148248
#        160190
#        179883
#        192380
#        202645
#        214681
#        226838
#        240745
#
# Disc length: 3375 seconds
#
# Revision: 0
# Processed by: cddbd v1.5.2PL0 Copyright (c) Steve Scherf et al.
# Submitted via: ExactAudioCopy v1.3
#
DISCID=0f0d2d14
DTITLE=Various Artist - Bluesology [Disc 1]
DYEAR=2013
DGENRE=Blues
TTITLE0=Muddy Waters - I'm Your Hoochie Coochie Man
TTITLE1=Howlin' Wolf - The Red Rooster
TTITLE2=Amos Milburn - One Scotch, One Bourbon, One Beer
TTITLE3=John Lee Hooker - Dimples
TTITLE4=Buddy Guy - When My Left Eye Jumps
TTITLE5=Albert King - Don't Throw Your Love On Me So Strong
TTITLE6=Bo Diddley - I'm Bad
TTITLE7=Elmore James - Dust My Broom
TTITLE8=Joe Williams - Baby, Please Don't Go Big
TTITLE9=Chuck Willis - C.C. Rider
TTITLE10=Bobby Bland - It's My Life, Baby
TTITLE11=Little Walter - My Babe
TTITLE12=Freddie King - Hide Away
TTITLE13=Champion Jack Dupree - Evil Woman
TTITLE14=Jimmy Reed - I Love You Baby
TTITLE15=Willie Dixon and Memphis Slim - Good Understanding
TTITLE16=Lightnin' Hopkins - Shotgun
TTITLE17=Otis Rush - You Know My Love
TTITLE18=Blind Willie McTell - Broke Down Engine Blues
TTITLE19=B.B. King - When My Heart Beats Like A Hammer
EXTD=
EXTT0=
EXTT1=
EXTT2=
EXTT3=
EXTT4=
EXTT5=
EXTT6=
EXTT7=
EXTT8=
EXTT9=
EXTT10=
EXTT11=
EXTT12=
EXTT13=
EXTT14=
EXTT15=
EXTT16=
EXTT17=
EXTT18=
EXTT19=
PLAYORDER=
